# xmcd
#
# Track frame offsets: 
#        150
#        10583
#        19927
#        34288
#        47220
#        58985
#        67448
#        77606
#        85419
#        96507
#
# Disc length: 1437 seconds
#
# Revision: 2
# Processed by: cddbd v1.5.2PL0 Copyright (c) Steve Scherf et al.
# Submitted via: ExactAudioCopyFreeDBPlugin 1.0
#
DISCID=8b059b0a
DTITLE=Diggs Duke - Offering for Anxious
DYEAR=2015
DGENRE=R&B/Soul
TTITLE0=Harsh Words With the Oracle
TTITLE1=Crazy Like a Fox
TTITLE2=Is It Love?
TTITLE3=Sweat Like Sieves
TTITLE4=Born from You
TTITLE5=Nine Winning Wives
TTITLE6=Lion's Feast
TTITLE7=Something in My Soul
TTITLE8=Cause I Love You
TTITLE9=Mass Exodus
EXTD=Powerd by gracenote music web API
EXTT0=
EXTT1=
EXTT2=
EXTT3=
EXTT4=
EXTT5=
EXTT6=
EXTT7=
EXTT8=
EXTT9=
PLAYORDER=
